<svg xmlns="http://www.w3.org/2000/svg" viewBox="0 0 793 644" role="img" aria-labelledby="title desc">
  <title id="title">InHouse Market</title>
  <desc id="desc">Logo InHouse Market com casa, carrinho e texto nas cores preto, branco e laranja.</desc>
  <rect width="793" height="644" fill="#000000"/>

  <g transform="translate(196 56)">
    <path d="M30 169 232 12l202 157" fill="none" stroke="#ffffff" stroke-width="40" stroke-linejoin="miter"/>
    <path d="M84 156v187h296V156" fill="none" stroke="#ff8315" stroke-width="18"/>
    <rect x="84" y="32" width="50" height="58" fill="#ff8315"/>
    <path d="M140 144h31l11 19h130c19 0 28 13 18 30l-37 66c-7 12-18 18-32 18h-68l-12 22h106v18H169c-17 0-27-15-19-31l19-36-48-87h-32v-19h51Z" fill="#ffffff"/>
    <circle cx="169" cy="340" r="16" fill="#ffffff"/>
    <circle cx="247" cy="340" r="16" fill="#ffffff"/>
  </g>

  <g font-family="Arial, Helvetica, sans-serif" font-weight="900">
    <text x="122" y="540" fill="#ffffff" font-size="96">In</text>
    <text x="260" y="540" fill="#ff8315" font-size="96">House</text>
    <text x="500" y="588" fill="#ffffff" font-size="42" letter-spacing="3">MARKET</text>
  </g>
</svg>
